<?xml version="1.0" standalone="no"?>
<!DOCTYPE svg PUBLIC "-//W3C//DTD SVG 20010904//EN"
 "http://www.w3.org/TR/2001/REC-SVG-20010904/DTD/svg10.dtd">
<svg version="1.0" xmlns="http://www.w3.org/2000/svg"
 width="523.000000pt" height="96.000000pt" viewBox="0 0 523.000000 96.000000"
 preserveAspectRatio="xMidYMid meet">

<g transform="translate(0.000000,96.000000) scale(0.100000,-0.100000)"
fill="#000000" stroke="none">
<path d="M0 480 l0 -480 2615 0 2615 0 0 480 0 480 -2615 0 -2615 0 0 -480z
m430 225 c-21 -25 -69 -47 -93 -43 -17 3 -13 7 19 16 22 7 49 21 59 32 21 23
34 18 15 -5z m176 16 c-4 -5 -2 -11 2 -13 5 -1 -9 -21 -30 -42 -21 -22 -38
-35 -38 -30 0 11 59 94 66 94 3 0 3 -4 0 -9z m254 -81 c16 0 32 5 35 10 3 6
11 10 16 10 6 0 1 -13 -11 -30 -19 -27 -60 -42 -60 -22 0 5 -10 13 -22 19 -20
9 -69 83 -68 101 1 4 19 -14 41 -40 31 -36 48 -48 69 -48z m-136 27 l31 -38
-25 -19 c-31 -24 -44 -21 -48 13 -4 31 4 34 32 10 18 -16 17 -15 -3 14 -12 18
-32 40 -44 49 l-22 15 24 -3 c13 -2 38 -20 55 -41z m-271 -37 c-38 -36 -47
-40 -90 -39 l-48 1 54 8 c41 6 61 16 85 39 17 17 33 31 36 31 3 0 -14 -18 -37
-40z m197 -5 c7 -9 10 -18 7 -22 -7 -7 -65 15 -73 28 -9 16 53 10 66 -6z m286
-89 c-15 -37 -33 -44 -38 -14 -5 28 32 75 43 56 4 -6 2 -25 -5 -42z m1675 -41
c21 -49 38 -96 38 -102 2 -23 -29 -14 -41 12 -10 22 -18 25 -59 25 -42 0 -48
-3 -53 -25 -4 -16 -13 -25 -26 -25 -19 0 -19 1 1 53 12 28 30 76 42 105 30 80
51 71 98 -43z m-1996 45 c3 -6 -1 -7 -9 -4 -18 7 -21 14 -7 14 6 0 13 -4 16
-10z m-194 -33 c-6 -8 -9 -21 -6 -29 8 -20 -16 -38 -42 -32 -22 6 -37 29 -28
44 3 5 19 11 35 15 16 4 33 11 36 16 3 6 8 8 11 5 3 -3 1 -12 -6 -19z m2353 7
c9 -8 16 -19 16 -24 0 -5 3 -15 6 -24 5 -13 -2 -16 -45 -16 -37 0 -51 -4 -51
-14 0 -26 25 -38 54 -25 32 15 48 3 22 -17 -68 -50 -150 43 -100 114 18 26 74
30 98 6z m-2048 -115 c49 -67 85 -95 135 -103 31 -5 39 -10 31 -18 -14 -14
-63 -14 -112 -1 -31 8 -90 67 -102 103 -2 6 -21 17 -42 24 l-38 13 21 20 c32
30 65 18 107 -38z m8 46 c-4 -8 -10 -15 -15 -15 -5 0 -9 7 -9 15 0 8 7 15 15
15 9 0 12 -6 9 -15z m-357 -37 c16 -2 20 -7 14 -17 -7 -10 -13 -11 -32 -1
l-24 11 24 -20 c13 -12 18 -21 12 -21 -19 0 -51 39 -51 62 0 19 1 20 18 5 9
-8 27 -17 39 -19z m577 6 c9 -3 13 -10 10 -15 -8 -14 -21 -11 -28 6 -6 17 -4
18 18 9z m-299 -41 c36 -36 80 -102 72 -109 -3 -3 -22 13 -42 35 -22 24 -52
45 -73 51 -52 14 -52 4 -1 -19 24 -10 55 -30 68 -45 31 -33 22 -33 -25 -1 -20
14 -43 25 -50 25 -8 0 -23 9 -34 20 -20 20 -20 20 3 44 29 32 49 32 82 -1z
m161 -23 c8 0 14 -4 14 -10 0 -13 -6 -13 -31 1 -11 5 -16 15 -12 22 5 8 8 8
11 -1 2 -7 10 -12 18 -12z m-276 -41 c22 -41 21 -51 -4 -55 -9 -1 -16 12 -20
35 -12 74 -6 79 24 20z m-55 12 c-3 -5 -1 -12 5 -16 18 -11 11 -45 -9 -45 -26
0 -31 20 -13 48 13 21 30 33 17 13z m625 -121 c0 -13 -879 -13 -900 0 -10 6
143 10 443 10 298 0 457 -3 457 -10z"/>
<path d="M2536 508 c-21 -49 -21 -48 14 -48 33 0 36 10 16 55 l-14 30 -16 -37z"/>
<path d="M2707 504 c-17 -17 -5 -34 24 -34 24 0 30 4 27 18 -3 17 -38 29 -51
16z"/>
</g>
</svg>
